<svg version="1.1"
  baseProfile="full"
  width="{0}" height="{1}">
  <image x="0" y="0" width="100%" height="100%" href="{2}"/>
  <rect x="0" y="0" width="100%" height="100%" style="fill: black;fill-opacity: 0.30;"/>
  <text x="1280" y="58" font-family="MiSans Medium" fill="white" font-size="45" text-anchor="middle" dominant-baseline="middle">
    Generated by tomato Team - Orzmic
  </text>
  <rect x="285" y="91" width="1203px" height="689px" fill="white" fill-opacity="0.75"/>
  <image x="298" y="104" width="1178px" height="662px" href="{3}"/>
  <rect x="1488" y="91" width="816px" height="689px" fill="black" fill-opacity="0.45"/>
  <rect x="2304" y="91" width="13px" height="689px" fill="white" fill-opacity="0.45"/>
  <image x="1556" y="267" width="689px" height="6px" href="resource/orzmic/divider.png"/>

  <!-- Title -->
  <text x="1543" y="224" font-family="MiSans Medium" fill="#b0b0b0" font-size="80">
    {4}
  </text>
  <text x="1549" y="227" font-family="MiSans Medium" fill="white" font-size="80">
    {4}
  </text>

  <!-- artic -->
  <text x="1545" y="337" font-family="MiSans Medium" fill="#b0b0b0" font-size="48">
    Artist:
  </text>
  <text x="1549" y="339" font-family="MiSans Medium" fill="white" font-size="48">
    Artist:
  </text>

  <text x="1545" y="399" font-family="MiSans Medium" fill="#b0b0b0" font-size="64">
    {5}
  </text>
  <text x="1549" y="401" font-family="MiSans Medium" fill="white" font-size="64">
    {5}
  </text>


  <!-- illustration -->
  <text x="1545" y="465" font-family="MiSans Medium" fill="#b0b0b0" font-size="48">
    Illustration:
  </text>
  <text x="1549" y="467" font-family="MiSans Medium" fill="white" font-size="48">
    Illustration:
  </text>

  <text x="1545" y="527" font-family="MiSans Medium" fill="#b0b0b0" font-size="60">
    {6}
  </text>
  <text x="1549" y="529" font-family="MiSans Medium" fill="white" font-size="60">
    {6}
  </text>

  <!-- BPM -->
  <text x="1545" y="602" font-family="MiSans Medium" fill="#b0b0b0" font-size="48">
    BPM:
  </text>
  <text x="1549" y="604" font-family="MiSans Medium" fill="white" font-size="48">
    BPM:
  </text>
  
  <text x="1545" y="665" font-family="MiSans Medium" fill="#b0b0b0" font-size="60">
    {7}
  </text>
  <text x="1549" y="667" font-family="MiSans Medium" fill="white" font-size="60">
    {7}
  </text>

  <!-- 间隔21.33333333 -->
  <!-- Easy -->
  <image x="285" y="856" width="190px" height="190px" href="resource/orzmic/Level/ez.png"/>

  <rect x="318" y="974" width="124px" height="5px" fill="white"/>

  <rect x="496" y="856" width="11px" height="190px" fill="white" fill-opacity="0.30"/>
  <rect x="507" y="856" width="743px" height="190px" fill="black" fill-opacity="0.45"/>
  <rect x="1250" y="856" width="13px" height="190px" fill="white" fill-opacity="0.30"/>

  {8}
  
  <!-- Normal -->
  <image x="1337" y="856" width="190px" height="190px" href="resource/orzmic/Level/nr.png"/>

  <rect x="1370" y="974" width="124px" height="5px" fill="white"/>

  <rect x="1550" y="856" width="11px" height="190px" fill="white" fill-opacity="0.30"/>
  <rect x="1561" y="856" width="743px" height="190px" fill="black" fill-opacity="0.45"/>
  <rect x="2304" y="856" width="13px" height="190px" fill="white" fill-opacity="0.30"/>

  {9}

  <!-- Hard -->
  <image x="285" y="1152" width="190px" height="190px" href="resource/orzmic/Level/hd.png"/>

  <rect x="318" y="1270" width="124px" height="5px" fill="white"/>

  <rect x="496" y="1152" width="11px" height="190px" fill="white" fill-opacity="0.30"/>
  <rect x="507" y="1152" width="743px" height="190px" fill="black" fill-opacity="0.45"/>
  <rect x="1250" y="1152" width="13px" height="190px" fill="white" fill-opacity="0.30"/>

  {10}

  <!-- Special -->
  <image x="1337" y="1152" width="190px" height="190px" href="resource/orzmic/Level/sp.png"/>
  
  <rect x="1370" y="1270" width="124px" height="5px" fill="white"/>

  <rect x="1550" y="1152" width="11px" height="190px" fill="white" fill-opacity="0.30"/>
  <rect x="1561" y="1152" width="743px" height="190px" fill="black" fill-opacity="0.45"/>
  <rect x="2304" y="1152" width="13px" height="190px" fill="white" fill-opacity="0.30"/>

  {11}
</svg>